<?xml version="1.0" encoding="UTF-8" standalone="no"?><svg xmlns="http://www.w3.org/2000/svg" xmlns:xlink="http://www.w3.org/1999/xlink" clip-rule="evenodd" fill="#000000" fill-rule="evenodd" height="1836.2" image-rendering="optimizeQuality" preserveAspectRatio="xMidYMid meet" shape-rendering="geometricPrecision" text-rendering="geometricPrecision" version="1" viewBox="-2.0 -6.9 1488.9 1836.2" width="1488.9" zoomAndPan="magnify"><g id="change1_1"><path d="M112.87 567.7c5.83,-1.7 8.09,-1.78 14.13,-1.46 1.93,0.03 3.47,-1.58 5.24,-2.75 7.05,-4.63 14.16,-10.1 20.9,-15.21 3.23,-2.45 5.44,-4.47 8.37,-7.22 5.64,-5.29 33.5,-14.6 42.43,-17.89 1.84,-0.68 3.68,-1.36 5.52,-2.04 17.28,-6.42 33.94,-12.49 51.01,-19.55 8.73,-3.61 17.9,-6.05 26.88,-9.27 10.51,-3.77 20.96,-7.75 31.47,-11.53 4,-1.44 8.01,-2.87 12.03,-4.28 22.64,-7.97 45.13,-16.43 67.61,-24.86 8.98,-3.36 17.59,-6.66 26.66,-9.87 12.65,-4.47 25.41,-9.13 38.04,-13.68 17.73,-6.39 35.37,-12.82 52.99,-19.4 -0.54,3.23 -0.51,6.46 0.6,9.85 4.37,13.35 15.41,67.01 21.82,63.16 6.42,-3.85 90.63,-68.3 90.63,-89.61 0,0 10.78,16.43 -44.93,63.16 0,0 12.07,23.11 11.81,39.03 0,0 -6.16,-15.4 -12.32,-20.8 -6.16,-5.39 -33.89,1.28 -42.36,39.28 0,0 -2.82,-8.47 -1.8,-12.07 0,0 -25.42,11.55 -30.55,83.96 0,0 -3.08,-29.53 3.59,-57.51 0,0 -27.73,17.97 -38.51,49.81 -10.78,31.84 -14.12,52.38 -14.12,52.38 0,0 -9.24,8.6 1.41,17.72 10.66,9.11 35.43,6.93 35.43,6.93 0,0 -20.16,7.06 -35.69,1.16 0,0 -2.7,16.18 -11.94,26.44 -9.24,10.27 -25.68,24.9 -31.07,46.99 0,0 -22.34,21.82 -27.73,33.38 0,0 4.04,-14.08 21.82,-36.2 0,0 1.72,-17.89 9.72,-30.9 -41.78,-73.66 -99.73,-121.09 -158.98,-121.09 -101.54,0 -168.44,139.32 -149.42,311.18 19.02,171.86 116.76,311.18 218.3,311.18 101.54,0 168.44,-139.32 149.42,-311.18 -2.31,-20.91 -5.79,-41.34 -10.3,-61.1 0,0 -16.41,39.44 -58.52,57.92 0,0 24.13,-14.38 40.82,-44.67 16.69,-30.3 29.56,-39.72 47.53,-57.95 17.97,-18.23 24.61,-33.86 29.24,-42.08 0,0 -23.11,-59.15 -10.78,-113.58 0,0 -6.68,51.09 19.51,97.05 0,0 16.63,44.36 35.12,63.36 0,0 27.47,-6.42 41.34,-20.8 0,0 -10.53,18.49 -41.59,30.55 0,0 -4.28,36.26 2.37,49.1 6.65,12.83 45.96,-25.42 67.27,-27.99 0,0 -13.61,8.47 -29.27,25.67 -15.66,17.2 -31.84,10.01 -34.4,18.23 -2.57,8.22 -0.77,29.01 4.11,40.31 0,0 38.77,0.51 59.82,-14.89 21.05,-15.41 40.82,-26.7 83.7,-38.77 0,0 -41.59,15.66 -65.73,36.97 -24.13,21.31 -42.62,24.9 -79.85,30.81 0,0 0.77,61.62 12.07,66.24 0,0 52.38,-34.92 91.92,-47.5 39.54,-12.58 83.19,-38.51 98.33,-45.44 0,0 -37.49,28.76 -70.86,42.11 -33.38,13.35 -79.59,27.47 -116.82,62.9 0,0 0.26,4.11 4.36,7.96 4.11,3.85 2.31,15.15 1.8,23.62 -0.51,8.47 -3.85,27.21 -1.54,37.74 0,0 13.35,-12.32 16.94,-30.3 0,0 3.59,41.59 -30.3,57.51 -33.89,15.92 -54.17,30.29 -65.99,79.08 0,0 66.24,-12.84 87.29,-50.84 0,0 -10.27,36.46 -29.78,52.38 -11.86,9.67 -3.8,39.07 4.34,60.64 -6.93,-5.04 -13.63,-13.3 -16.82,-26.86 -8.06,-34.23 8.56,-41.28 8.56,-41.28 0,0 -41.79,15.35 -72.49,11.83 0,0 -38.26,24.92 -55.38,53.11 -17.12,28.19 -24.16,34.49 -45.05,57.14 0,0 20.65,25.27 26.68,47.32 0.82,3 1.52,7.04 2.33,11.74 -14.41,-34.72 -40.73,-48.01 -38.46,-53.24 -41.16,32.51 -0.12,62.64 -2.13,136.15 -2.01,73.5 18.63,130.14 18.63,130.14 0,0 2.01,-39.52 31.97,-58.65 29.95,-19.13 19.26,-67.46 -3.4,-54.75 -22.65,12.71 -6.8,34.74 -6.8,34.74 -21.4,-17.12 -3.02,-46.06 17.12,-42.54 20.14,3.52 33.23,35.74 -2.52,70.98 -35.74,35.24 -24.16,98.17 -23.91,114.78 0.25,16.61 -10.07,20.14 -10.07,20.14 4.53,14.85 22.4,31.46 22.4,31.46 -22.4,-13.34 -26.68,-28.19 -26.68,-28.19 -4.53,1.76 -5.03,6.04 -5.03,6.04 6.54,27.94 47.07,42.29 47.07,42.29 -32.98,-5.03 -49.08,-32.72 -49.08,-32.72 -22.4,20.39 -83.32,42.67 -83.32,42.67 0,0 -0.63,-0.5 -9.69,3.02 -9.06,3.52 -13.59,12.33 -19.51,14.73 -5.92,2.39 -15.98,5.41 -16.74,11.96 -0.76,6.54 8.31,12.96 8.31,12.96 -7.93,-2.27 -10.07,-6.04 -10.07,-6.04 -10.57,15.1 -0.25,16.87 15.35,26.18 15.61,9.31 68.97,14.1 105.47,1.51 36.5,-12.59 80.8,-16.11 102.7,-16.11 21.9,0 50.85,-13.34 48.83,-17.37 -2.01,-4.03 -3.02,-16.11 -3.02,-16.11 -7.3,19.38 -45.81,23.66 -45.81,23.66 20.39,-3.27 38.51,-19.13 40.27,-23.16 1.76,-4.03 0.5,-22.91 -4.53,-31.46 -5.03,-8.56 -8.81,-26.43 -8.81,-26.43 -15.1,31.46 -39.27,27.19 -39.27,27.19 25.93,-2.77 31.46,-31.46 31.46,-31.46 -11.08,-44.81 7.55,-122.84 7.55,-122.84 -77.78,18.12 -70.98,65.45 -51.35,67.96 19.63,2.52 24.16,-15.35 24.16,-15.35 -3.52,38.76 -52.86,24.67 -43.8,-11.08 9.06,-35.74 71.49,-53.36 71.49,-53.36 14.1,-41.79 3.52,-107.23 3.52,-107.23 -2.15,0.83 -4.27,1.52 -6.37,2.11 -5.67,-8.96 -19.46,-33.01 -16.04,-50.32 0,0 -24.67,7.8 -31.72,20.89 0,0 7.05,-30.21 58.15,-46.82 49.68,-16.15 152.89,-73.89 200.22,-123.63 9.32,7.4 18.25,14.18 23.3,17.34 12.32,7.7 27.22,-67.27 26.19,-78.57 -1.03,-11.3 -55.46,-92.94 -55.46,-115.54 0,0 27.21,54.94 72.92,109.37 0,0 34.93,15.44 63.5,26.68l-0 0 -54.15 -4.2c13.84,27.04 30.39,52.22 52.53,67.96 46.64,33.17 57.53,39.39 71.52,65.82 13.99,26.43 43.02,83.44 74.11,102.62 0,0 4.15,-10.11 11.66,-13.47 0,0 -5.96,12.96 -5.96,19.69 0,6.74 -6.22,11.92 8.03,18.66 14.25,6.74 41.72,21.25 51.05,46.12 2.6,6.94 6.25,15.05 11.03,23.79 51.09,48.41 69.14,25.18 98.94,50.84 29.8,25.65 16.2,44.31 10.11,47.55 -6.09,3.24 -13.6,4.15 -24.75,-10.24 -11.14,-14.38 -3.37,-24.23 -3.37,-24.23 -3.89,7.51 9.33,31.87 22.28,30.84 12.96,-1.04 4.15,-41.98 -33.69,-47.16 -37.38,-5.12 -58.34,-29.44 -58.84,-30.02 12.15,18.08 17.62,32.13 48.37,55.29 30.74,23.16 59.96,88.09 64.13,93.55 4.17,5.46 3.42,4.56 5.25,7.18l0 -0c0,0 23.74,-7.45 35.66,-21.7 0,0 -5.06,16.96 -31.36,28.2 2.64,4.22 4.96,8.51 6.31,12.21l0 0c0.76,2.07 1.21,3.97 1.24,5.56 3.01,10.85 12.95,36.45 44.11,66.64 0,0 -31,-22.59 -47.36,-54.87 -1.98,7.84 -2.04,18.79 11.02,35.03 21.25,26.43 51.31,67.89 66.86,75.67 15.55,7.77 70.48,5.7 89.14,-5.7 18.66,-11.4 22.8,-55.97 17.1,-65.3 -1.5,-2.45 -7.13,-9.25 -14.95,-18.2 2.34,16.77 4.96,51.74 -10.39,68.88 0,0 10.61,-40.56 1.69,-78.71 -22.35,-24.99 -53.94,-58.45 -66.01,-67.84 -18.66,-14.51 -46.13,-63.23 -46.13,-63.23l5.7 35.24c0,0 -44.57,-109.35 -46.13,-112.46 -1.56,-3.11 -49.75,-90.7 -73.07,-75.15 0,0 -10.36,8.29 13.47,30.58 23.84,22.29 16.58,-6.48 11.14,-10.62 0,0 11.92,9.33 9.85,19.95 -2.07,10.62 -17.62,8.55 -33.95,-11.14 -16.33,-19.69 -16.07,-35.5 -1.3,-40.68 14.77,-5.18 47.16,20.73 63.75,50.79 0,0 -69.19,-113.76 -90.95,-127.75 -21.77,-13.99 -35.76,-18.66 -64.78,8.29 0,0 20.21,-33.69 44.05,-32.91 0,0 -52.08,-117.65 -65.56,-138.38 -10.27,-15.8 -41.29,-69.19 -55.48,-93.73 7.06,-0.52 11.72,-1.57 11.72,-3.44 0,-7.7 -27.22,-59.05 -35.94,-62.13 -8.73,-3.08 -86.78,-54.43 -118.62,-85.75 0,0 78.05,51.86 125.29,74.46l43.65 6.16c0,0 -23.62,-50.84 -38.51,-58.03 -14.89,-7.19 -105.27,-73.43 -115.54,-100.65 0,0 -13.99,-1.93 -31.97,6.68 0,0 11.68,-10.53 27.34,-12.2 0,0 4.11,-6.42 2.18,-10.91 -1.93,-4.49 -8.73,-21.7 -8.73,-27.73 0,-6.03 2.44,-19.26 -10.01,-15.53 -12.45,3.72 -48.4,22.08 -72.02,33.25 0,0 57.13,-33.51 70.73,-40.44 13.61,-6.93 15.4,-12.58 15.15,-25.93 -0.26,-13.35 4.62,-27.22 1.28,-27.99 -3.34,-0.77 -33.12,2.82 -47.5,6.93 0,0 29.53,-11.81 50.07,-13.61 0,0 -0.77,-8.73 2.82,-22.85 3.6,-14.12 9.76,-28.76 5.65,-32.09 -4.11,-3.34 -72.4,-2.31 -101.16,10.01 0,0 44.93,-25.42 101.42,-18.23 0,0 12.07,-3.08 10.78,-11.55 -1.28,-8.47 -2.31,-11.81 -0.26,-20.03 6.8,-27.22 3.52,-24.39 7.49,-31.87l0.35 23.2c-0.66,4.28 6.01,21.53 6.76,26.52 1.38,9.12 -2.75,17.08 -9.88,22.29 1.49,10.41 -3.76,23.17 -6.28,32.24 -0.28,1.02 -0.56,2.05 -0.82,3.08 -1.29,5.05 -2.77,12.76 -2.42,18.07l1.29 14.39 -2.88 0.25c-0.14,1.55 -0.34,3.1 -0.56,4.62 -0.79,5.36 -1.75,10.89 -1.64,16.32 0.23,12.05 -1.7,20.54 -7.33,27.42 4.32,6.52 3.5,13.55 3.48,21.28 0.52,4.94 5.53,17.52 7.56,22.24 1.79,4.18 2.04,8.75 1.22,13.17l1.45 3.85c4.64,12.29 37.25,39.91 47.81,48.59 12.35,10.16 25.1,19.97 38.09,29.29 4.8,3.45 9.66,6.85 14.6,10.09 2.36,1.55 5.23,3.5 7.77,4.73 17.4,8.4 37.09,47.19 45.36,64.97l11.28 24.23 -50.57 -7.14c3.96,6.02 7.34,12.14 9.69,16.35 4.86,8.72 16.58,30.14 16.58,39.95 0,4.72 -1.89,8.53 -4.88,11.35 5.42,9.33 10.86,18.66 16.31,27.97 9.72,16.58 19.51,33.83 29.98,49.93 5.43,8.36 10.28,18.61 14.69,27.58 6.67,13.58 13.1,27.3 19.46,41.04 11.03,23.83 21.88,47.78 32.51,71.8l5.48 12.38c3.35,1.82 6.62,3.84 9.83,5.9 8.62,5.54 17.98,17.46 24.25,25.56 9.68,12.51 18.78,25.63 27.62,38.74 12.31,18.27 24.24,36.84 35.88,55.55 4.13,-3.24 8.22,-6.53 12.26,-9.88 6.73,-5.58 31.49,-26.85 33.9,-34.92 0.23,-1.5 0.18,-3.84 0.03,-6.29 -132.34,-106.89 -80.13,-269.58 -180.86,-358.29 113.03,88.4 63.17,203.32 177.42,320.13 -1.85,-26.3 -1.55,-53.5 5.07,-79.17 9.32,-36.11 30.12,-64 64.64,-79.69 1.89,-0.86 3.8,-1.7 5.71,-2.52 -37.65,-18.52 -58.74,-56.67 -68.86,-117.81 -12.44,-75.15 -58.05,-94.84 -58.05,-94.84 65.3,35.24 66.24,86.16 84.99,140.97 18.75,54.81 48.95,58.58 79.16,70.19 25.93,-8.85 42.16,-23.98 68.89,-30.22 6.81,-1.59 33.34,-7.46 45.12,-12.47 -1.45,-1.15 -2.91,-2.2 -3.75,-2.78 -6.72,-4.65 -13.92,-8.48 -21.37,-11.8 -12.23,-5.45 -25.09,-9.58 -37.75,-13.9 -14.34,-4.9 -28.42,-10.06 -41.95,-16.95 -36.7,-18.72 -61.18,-46.43 -79.81,-82.91 -12.61,-24.7 -27.87,-52.48 -51.65,-68.11 -13.43,-8.82 -30,-15.13 -44.78,-21.39 -26.28,-11.13 -51.2,-23.07 -76.07,-37.14 -39.26,-22.22 -82.07,-51.53 -92.52,-98.42 -3.62,-16.27 -3.25,-32.9 -1.79,-49.4 1.62,-18.31 4.38,-36.55 6.17,-54.87 2.2,-22.52 -5.52,-59.22 -19.06,-79.56 4.59,-0.67 8.56,-1.39 11.76,-2.18 34.22,-8.44 88.12,-42.18 119.99,-54.37 31.87,-12.19 71.71,-28.12 73.59,-49.68 1.87,-21.56 -0.47,-32.34 -16.41,-52.97 -15.94,-20.62 -38.43,-67.5 -42.65,-70.78 -4.22,-3.28 -22.03,-2.81 -22.03,-2.81 9.61,-2.34 20.86,-4.22 15.7,-10.78 -5.16,-6.56 -51.44,-47.22 -57.53,-54.61 -6.09,-7.38 -2.58,-15 -8.55,-15 -5.98,0 -20.16,3.4 -20.16,3.4 6.21,-3.4 15.23,-5.27 15.23,-5.27 0,0 -8.2,-12.19 -13.36,-20.39 -5.16,-8.2 -1.64,-18.98 3.98,-33.51 5.62,-14.53 16.41,-50.86 15.94,-59.53 -0.04,-0.73 -0.32,-1.49 -0.81,-2.28 3.29,-1.3 6.61,-2.62 9.98,-3.93 10.67,-4.13 21.61,-7.53 32.38,-11.56 8.54,-3.19 17.15,-6.14 25.74,-9.35 13.48,-5.03 26.88,-9.86 40.42,-14.69 20.9,-7.46 41.87,-15.32 62.73,-22.96 12.52,-4.59 24.85,-9.67 37.43,-14.26 7.01,-2.56 11.77,-4.65 18.47,-7.92 8.16,-3.99 12.82,-3.92 20.88,-6.48 1.82,-0.58 0.86,-0.79 -0.72,-2.99 -2.5,-3.49 -4.99,-6.55 -7.16,-10.28 -8.03,3.51 -11.92,5.51 -20.57,7.83 -12.67,3.4 -25.2,8.3 -37.79,12.35 -24.83,7.99 -49.16,16.88 -73.84,25.17 -8.86,2.98 -16.02,3.76 -24.69,7.79 -5.97,2.77 -10.37,4.84 -16.64,7.08 -17.82,6.38 -35.66,12.79 -53.52,19.05 -11.07,3.88 -22.26,7.3 -33.4,11.12 -9.3,-4.74 -19.08,-8.94 -23.32,-11.11 -9.14,-4.69 -13.71,-4.22 -13.71,-4.22l12.07 9.49c0,0 -11.48,-7.97 -18.05,-9.96 -6.56,-1.99 -11.72,5.04 -11.72,5.04l13.36 7.5c0,0 -9.37,-3.05 -17.58,-5.16 -8.2,-2.11 -19.22,15.47 -26.72,27.65 -1.96,3.19 -1.84,7.08 -0.59,11.09 -23.39,8.21 -46.77,16.44 -70.28,24.42 -11.24,3.82 -22.56,8.03 -33.77,12.04 -18.87,6.74 -37.71,13.11 -56.56,19.98 -7.89,2.88 -16.08,5.37 -24.08,8.21 -9.8,3.48 -19.68,6.85 -29.44,10.44 -6.63,2.44 -11.84,5.63 -18.85,7.69 -9.89,2.91 -18.46,5.81 -28.12,9.38 -4.95,1.83 -9.99,3.5 -15.07,5.14 1.14,-8.9 1.32,-17.26 1.82,-19.44 0.77,-3.34 9.5,2.57 9.5,2.57 3.59,-66.24 -36.97,-105.78 -36.97,-105.78 48.53,37.74 47.76,99.36 47.76,99.36l7.73 11.78 30.13 -12.33c-11.59,-13.46 -21.94,-22.56 -21.94,-22.56 11.18,5.89 20.84,13.17 28.48,19.88l28.52 -11.67c-32.2,-19.25 -68.56,-32.34 -68.56,-32.34 34.97,6.9 62.88,17.32 82.77,26.53l38.95 -15.94c-1.22,-33.37 -15.43,-53.2 -15.43,-53.2 -48.27,-11.3 -134.02,-0.51 -134.02,-0.51 85.24,-22.08 120.16,-9.76 120.16,-9.76 0,-44.67 -18.49,-58.54 -18.49,-58.54 -57,-3.08 -142.24,31.84 -142.24,31.84 86.27,-44.67 130.43,-42.62 130.43,-42.62 -17.46,-57 -49.81,-64.7 -49.81,-64.7 -39.54,20.54 -77.02,65.73 -77.02,65.73 23.62,-38.51 64.19,-66.75 64.19,-66.75 -17.46,-29.27 -56.49,-37.49 -56.49,-37.49 -10.78,89.35 -43.65,135.56 -43.65,135.56 30.3,-66.24 31.32,-130.43 31.32,-130.43 -45.7,-24.65 -69.32,-16.43 -69.32,-16.43 12.84,61.62 2.57,139.16 2.57,139.16 5.13,-60.08 -10.27,-130.94 -10.27,-130.94 -13.35,-3.08 -33.89,0 -33.89,0 19.51,73.87 16.43,132.48 16.43,132.48 -1.54,-84.21 -33.89,-140.19 -33.89,-140.19 -40.05,7.19 -61.62,24.65 -61.62,24.65 53.92,80.62 62.13,124.27 62.13,124.27 -46.73,-108.35 -82.16,-124.27 -82.16,-124.27 -42.11,17.97 -65.73,46.22 -65.73,46.22 60.59,19 82.16,53.92 82.16,53.92 -33.38,-31.84 -71.38,-38 -71.38,-38l-1.54 15.41c59.57,7.19 106.29,62.13 106.29,62.13 0,0 49.29,-24.65 114.5,-17.2 0,0 -73.43,-2.05 -117.33,26.19 0,0 15.15,6.42 21.31,25.16 0,0 78.56,-38.26 134.02,-6.68 0,0 -54.69,-24.9 -133.51,17.2 0,0 -4.88,11.81 -7.7,13.61 0,0 57.17,24.53 101.16,48.01 0,0 -91.66,-38.77 -130.43,-50.32 0,0 -3.85,1.54 -1.28,13.86 2.57,12.32 -0.26,50.07 -0.26,50.07l7.45 25.67 -10.53 -17.2c0,0 1.8,23.11 2.57,29.01 0.77,5.91 1.54,52.12 1.54,52.12 0,0 14.12,-9.76 13.09,-13.09 -1.03,-3.34 -5.65,-40.31 -5.65,-40.31 0,0 48.52,-15.66 67.78,-26.96 0,0 -11.04,35.17 -28.76,49.3 -14.24,11.35 -17.53,12.42 -17.34,22.13 4.53,-0.95 10.21,-2.19 15.17,-3.43 10.24,-2.56 19.11,-6.15 30.9,-7.97 11.79,-1.81 32.58,-6.09 32.58,-6.09 -8.31,3.86 -17.38,5.41 -26.08,8.13 -12.33,3.86 -24.1,8.8 -36.55,12.73 -10.22,3.26 -20.37,7.06 -30.62,10.44 -8.74,2.88 -16.86,6.54 -25.72,9.44 -16.82,5.5 -33.26,11.54 -50.22,16.82 -9.6,2.99 -19.06,6.59 -28.69,9.73 -8.75,2.85 -17.09,6.29 -25.91,9.18 -8.97,2.94 -17.84,6.36 -26.86,9.39 -8.27,2.78 -16.1,5.22 -24.44,7.76 -10.99,3.35 -21.03,8.37 -32.07,11.94 -7.94,2.57 -13.9,5.05 -21.53,8.15 -8.96,3.64 -17.93,5.74 -27.07,9.4 -4.87,1.95 -9.53,3.87 -14.53,5.5 -16.91,5.31 -32.56,11.15 -49.09,17.42 -7.68,2.85 -12.77,4.48 -20.92,5.93 -7.8,1.39 -8.83,1.93 -15.59,5.54 -6.17,3.29 -17.66,2.9 -24.77,3.21 -1.66,0.07 -3.31,0.13 -4.96,0.18 -6.83,0.24 -11.35,1.01 -17.9,2.97 -3.66,1.34 -8.17,5.07 -12.01,7.23 -8.76,4.92 -9.28,3.9 -15.67,12.31 -10.57,13.49 -25.36,16.59 -37.6,28.09 -6.34,5.96 -8.65,7.74 -15.95,12.38 -3.88,2.46 -7.67,4.88 -11.43,7.53 -6.55,4.66 -6.33,3.8 1.1,2.29 6.1,-1.24 12.35,-2.8 18.36,-3.95 7.87,-1.51 14.6,0.04 22.59,-0.95 7.31,-0.91 14.34,-2.27 21.73,-2.31 10.13,-0.05 11.06,-0.5 20.47,-2.92 6.57,-1.69 12.94,-2.16 19.72,-3.92 1.41,-0.37 2.8,-0.76 4.2,-1.16zm410.65 -390.4c0,0 2.76,0.43 6.66,9.12 0,0 106.13,-43.94 159.99,9.57 -38.67,-47.83 -115.17,-41.29 -166.65,-18.68zm432.51 451.36c0,0 35.8,31.42 26.47,97.76 -9.33,66.34 -55.97,147.19 45.61,209.38 101.58,62.19 178.28,74.63 176.21,191.76 0,0 9.33,-78.78 -99.51,-129.05 -108.83,-50.27 -174.91,-87.84 -143.82,-211.71 31.1,-123.86 -15.58,-154.38 -37.99,-160.93 17.41,3.17 22.88,3.07 33.03,2.79zm-56.97 -2.79c81.62,85.6 -45.29,143.09 -5.7,219.22 -61.46,-79.37 96.97,-141.81 -4.92,-220.33 4.18,0.99 7.42,1.27 10.62,1.1zm93.07 2.98c0,0 -0.05,0.65 10.06,-1.42 60.86,90.75 -80.44,231.18 87.07,300.59 -194.79,-70.38 -22.74,-222.84 -97.13,-299.17zm-399.53 291.78l6.09 -2.57c0,0 0.29,28.63 4.06,46.81 0,0 -7.19,-19.65 -7.89,-28.98 -0.7,-9.33 -2.25,-15.26 -2.25,-15.26zm20.71 -5l6.09 -2.29c0,0 0.29,25.51 4.06,41.71 0,0 -7.19,-17.51 -7.89,-25.82 -0.7,-8.31 -2.25,-13.6 -2.25,-13.6zm20.72 -7.03l6.09 -2.13c0,0 0.29,23.71 4.06,38.77 0,0 -7.19,-16.28 -7.89,-24 -0.7,-7.72 -2.25,-12.64 -2.25,-12.64zm20.71 -11.31l6.09 -2.22c0,0 0.29,24.68 4.06,40.35 0,0 -7.19,-16.94 -7.89,-24.98 -0.7,-8.04 -2.25,-13.15 -2.25,-13.15zm20.72 -15.91l6.09 -2.57c0,0 0.29,28.63 4.06,46.81 0,0 -7.19,-19.65 -7.89,-28.98 -0.7,-9.33 -2.25,-15.26 -2.25,-15.26zm20.71 -11.37l6.09 -2.57c0,0 0.29,28.63 4.06,46.81 0,0 -7.19,-19.65 -7.89,-28.98 -0.7,-9.33 -2.25,-15.26 -2.25,-15.26zm20.72 -10.72l6.09 -2.57c0,0 0.29,28.63 4.06,46.81 0,0 -7.19,-19.65 -7.89,-28.98 -0.7,-9.33 -2.25,-15.26 -2.25,-15.26zm20.72 -7.35l6.09 -2.57c0,0 0.29,28.63 4.06,46.81 0,0 -7.19,-19.65 -7.89,-28.98 -0.7,-9.33 -2.25,-15.26 -2.25,-15.26zm20.72 -6.88l6.09 -2.57c0,0 0.29,28.63 4.06,46.81 0,0 -7.19,-19.65 -7.89,-28.98 -0.7,-9.33 -2.25,-15.26 -2.25,-15.26zm20.71 -8.94l6.09 -2.46c0,0 0.29,27.42 4.06,44.83 0,0 -7.19,-18.82 -7.89,-27.76 -0.7,-8.93 -2.25,-14.61 -2.25,-14.61zm20.71 -10.59l6.09 -2.5c0,0 0.29,27.85 4.06,45.52 0,0 -7.19,-19.11 -7.89,-28.18 -0.7,-9.07 -2.25,-14.84 -2.25,-14.84zm20.72 -11.28l6.09 -2.48c0,0 0.29,27.62 4.06,45.16 0,0 -7.19,-18.96 -7.89,-27.96 -0.7,-9 -2.25,-14.72 -2.25,-14.72zm-204.74 -442.3l6.27 -2.31c2.16,14.37 2.55,22.58 -7.89,35.48 -13.22,16.33 -22.03,25.39 -22.03,25.39 20,-32.44 26.39,-29.34 23.65,-58.56zm57.37 -21.32c1.76,-0.66 3.51,-1.32 5.26,-1.98 5.65,12.8 20.02,33.38 23.76,32.91 4.11,-0.51 4.37,-14.38 5.65,-24.9 0.94,-7.73 5.62,-13.94 4.99,-20.76 2.2,-0.77 4.41,-1.53 6.62,-2.28 12.89,-4.34 27.24,-9.42 39.75,-14.66 6.03,-2.53 9.88,-4.6 16.37,-6.55 5.79,-1.74 10.1,-3.11 15.79,-5.26 7.78,-2.94 16.04,-5.77 23.92,-8.56l1.5 -0.53c13.67,-2.13 26.62,-2.51 26.62,-2.51 -1.67,-1.7 -3.45,-3.38 -5.33,-5.04 6.66,-2.37 13.33,-4.75 19.99,-7.14 0.84,0.58 1.26,0.89 1.26,0.89 0.12,-0.49 0.23,-0.98 0.34,-1.46 11.32,-4.08 22.62,-8.21 33.8,-12.43 1.85,-0.7 3.7,-1.41 5.55,-2.12 15.06,-5.85 30.8,-11.42 46.02,-16.9 11.55,-4.15 22.48,-7.95 33.94,-12.5 7.75,-3.07 15.63,-5.95 23.48,-8.89 2.57,3 4.52,4.91 4.52,4.91 -2.34,3.28 -7.5,18.28 -7.03,34.22 0.47,15.94 40.08,75 40.08,75 10.31,-11.01 32.34,-17.34 32.34,-17.34 -4.69,2.81 -20.62,14.06 -25.78,21.56 -5.16,7.5 5.63,16.87 13.59,34.69 7.97,17.81 18.98,52.03 18.98,52.03 20.62,-27.42 52.03,-34.45 52.03,-34.45 -30.7,11.72 -45.23,34.69 -47.11,38.9 -1.88,4.22 11.72,25.31 11.72,25.31 21.56,6.09 25.31,15.47 25.31,15.47 -7.97,-7.5 -26.72,-7.03 -26.72,-7.03 0,41.72 -36.09,61.87 -36.09,61.87 18.28,-11.25 24.37,-60.46 24.37,-60.46 -87.18,-42.65 -138.12,39.4 -138.12,39.4 -39.03,70.35 -125.55,85.28 -125.55,85.28 110.89,-48 113.25,-96.83 135.81,-112.42 -1.1,-7.52 -20.68,-12.15 -28.22,-17.53 -49.37,-35.2 -64.96,57.56 -168.71,90.64 -103.76,33.08 -175.09,3.87 -175.09,3.87 193.08,35.43 273.21,-78.29 284.76,-92.15 11.55,-13.86 33.87,-16.71 33.87,-16.71 -21.05,-4.11 -10.15,-14.42 -28.37,-15.64 -80.56,-5.41 -78.51,78.87 -176,100.11 93.24,-35.92 78.86,-77.83 141.21,-102.19 16.43,-6.42 2.82,-7.96 -4.88,-13.86 -7.7,-5.91 -16.17,-5.14 -16.17,-5.14 -69.88,3.89 -72.66,36.74 -116.56,63.67 -43.91,26.93 -109.89,33.89 -109.89,33.89 78.05,-15.4 123.28,-45.45 142.53,-68.3 19.26,-22.85 33.86,-23.88 38.48,-25.93 4.62,-2.05 6.42,-5.39 -3.34,-10.27 -9.76,-4.88 -13.86,1.03 -22.08,1.54 -8.22,0.51 -8.99,-4.11 -15.15,-9.76 -6.16,-5.65 -13.61,-0.77 -13.61,-0.77 -17.46,64.19 -87.29,89.86 -87.29,89.86 68.81,-41.08 77.54,-87.04 77.54,-87.04 -8.99,-4.62 -9.76,-13.35 -9.76,-13.35 0,0 -15.09,-11.5 -24.91,-41.21zm25.8 -36.98c-1.65,0.55 -3.3,1.1 -4.95,1.66 -18.22,-12.77 -44.98,-28.49 -44.98,-28.49 20.1,8.77 38.33,19.49 49.93,26.83zm-33.97 11.87l-1.03 0.36 -3.16 1.08c-9.89,-9.92 -20.76,-8.3 -20.76,-8.3 10.12,-3.46 18.58,0.53 24.95,6.86zm-45.06 15.56c-1.6,0.6 -3.15,1.21 -4.67,1.83 1.33,-7.98 4.58,-14.56 11.33,-17.35 0,0 -5.13,4.16 -6.67,15.52zm-96.15 47.9c0.94,-0.34 1.88,-0.68 2.81,-1.02l0.09 -0.03 0.37 -0.14 0.59 -0.22 0.97 -0.35 0.5 -0.18 0.47 -0.17 0.12 -0.04 1.81 -0.67 0.69 -0.26 0.28 -0.1 0.75 -0.28 0.21 -0.08 0.81 -0.3 0.15 -0.06 0.88 -0.33 0.09 -0.03 0.94 -0.35 0.02 -0.01 0.96 -0.36 0.04 -0.02 0.92 -0.35 0.1 -0.04 0.86 -0.33 0.96 -0.37 0.23 -0.09 0.73 -0.28 1.92 -0.73 0.42 -0.16 0.54 -0.21 0.48 -0.19 0.48 -0.18 0.96 -0.37 0.61 -0.23 0.35 -0.14 0.67 -0.26 0.29 -0.11 0.73 -0.28 0.22 -0.09 0.8 -0.31 0.16 -0.06 0.86 -0.33 0.1 -0.04 0.92 -0.36 0.04 -0.01 0.96 -0.37 0.03 -0.01 0.93 -0.36 0.09 -0.03 0.87 -0.34 0.15 -0.06 0.8 -0.32 0.22 -0.08 0.74 -0.29 0.28 -0.11 0.68 -0.27 0.34 -0.13 0.61 -0.24 0.4 -0.16 0.55 -0.22 0.47 -0.18 0.49 -0.19 0.53 -0.21 0.43 -0.17 0.59 -0.23 0.36 -0.14 0.66 -0.26 0.3 -0.12 0.72 -0.28 0.24 -0.09 0.78 -0.31 0.18 -0.07 1.86 -0.73 0.05 -0.02 0.96 -0.38 0.01 -0.01 0.94 -0.37 0.08 -0.03 0.88 -0.35 0.14 -0.05 0.82 -0.32 0.2 -0.08 0.75 -0.3 0.27 -0.1 0.69 -0.27 0.33 -0.13 0.63 -0.25 0.39 -0.15 0.57 -0.22 0.45 -0.18 0.5 -0.2 0.52 -0.2 0.44 -0.17 0.58 -0.23 0.38 -0.15 0.64 -0.25 0.32 -0.12 0.71 -0.28 0.25 -0.1 0.77 -0.3 0.19 -0.07 0.83 -0.33 0.13 -0.05 0.9 -0.35 0.06 -0.02 0.96 -0.37 0.96 -0.37 0.28 -0.11 0.21 -0.08 0.48 -0.18 0.48 -0.18 0.07 -0.03 0.41 -0.16 0.48 -0.18 0.35 -0.13 0.14 -0.05 0.48 -0.18 0.48 -0.18 0.14 -0.05 0.35 -0.13 0.48 -0.18 0.41 -0.16 0.07 -0.03 0.49 -0.18 0.49 -0.18 0.21 -0.08 0.28 -0.1 0.49 -0.18 0.49 -0.18 0 -0 0.49 -0.18 0.49 -0.18 0.28 -0.1 0.21 -0.08 0.49 -0.18 0.49 -0.18 0.07 -0.02 0.42 -0.15 0.49 -0.18 0.49 -0.18 0.49 -0.18 0.49 -0.18 0.14 -0.05 0.35 -0.13 0.49 -0.18 0.42 -0.15 0.07 -0.03 0.49 -0.18 0.49 -0.18 0.21 -0.07 0.28 -0.1 0.49 -0.17 0.49 -0.17 0 -0 0.49 -0.17 0.49 -0.17 0.28 -0.1 0.21 -0.08 0.49 -0.17 0.49 -0.17 0.07 -0.02 0.42 -0.15 0.49 -0.17 0.35 -0.12 0.14 -0.05 0.49 -0.17 0.49 -0.17 0.14 -0.05 0.35 -0.12 0.49 -0.17 0.42 -0.15 0.07 -0.03 0.49 -0.17 0.49 -0.17 0.21 -0.07 0.28 -0.1 0.49 -0.17 0.49 -0.17 0 -0 0.49 -0.17 0.49 -0.17 0.28 -0.1 0.21 -0.07 0.49 -0.17 0.49 -0.17 0.07 -0.02 0.42 -0.15 0.49 -0.17 0.35 -0.12 0.14 -0.05 0.49 -0.17 0.49 -0.17c1.74,-0.6 3.48,-1.19 5.23,-1.79l0.69 -0.24 0.54 -0.19 0.15 -0.05 0.69 -0.24 0.43 -0.14 0.27 -0.09 0.69 -0.23 0.31 -0.1 0.38 -0.13 0.69 -0.23 0.19 -0.06 0.5 -0.17 0.69 -0.23 0.07 -0.02 0.62 -0.21 0.65 -0.22 0.05 -0.02 0.69 -0.23 0.53 -0.18 0.16 -0.06 0.69 -0.23 0.41 -0.14 0.28 -0.09 0.69 -0.23 0.29 -0.1 0.4 -0.13 0.69 -0.23 0.18 -0.06 0.52 -0.17 0.69 -0.23 0.06 -0.02 1.22 -0.41 0.05 -0.02 0.06 -0.02 0.69 -0.23 0.51 -0.17 0.18 -0.06 0.69 -0.23 0.4 -0.13 0.3 -0.1 0.69 -0.23 0.28 -0.09 0.41 -0.14 0.69 -0.24 0.16 -0.05 0.53 -0.18 0.69 -0.24 0.04 -0.01 0.65 -0.22 0.62 -0.21 0.07 -0.03 0.69 -0.24 0.5 -0.17 0.19 -0.07 0.69 -0.24 0.38 -0.13 0.31 -0.11 0.69 -0.24 0.26 -0.09 0.43 -0.15 0.69 -0.24 0.15 -0.05 0.54 -0.19 0.69 -0.24 0.03 -0.01 0.66 -0.23 0.6 -0.21 0.09 -0.03 0.69 -0.24 0.48 -0.17 0.21 -0.07 0.69 -0.24 0.37 -0.13 0.32 -0.11 0.69 -0.24 0.25 -0.09 0.07 -0.02 1.06 -0.37 0.13 -0.05 0.56 -0.19 0.69 -0.24 0.01 -0 0.67 -0.24 0.58 -0.21 0.1 -0.04 1.15 -0.41 0.22 -0.08 1.04 -0.37 0.34 -0.12 0.69 -0.24 0.23 -0.08 0.45 -0.16 0.69 -0.25 0.12 -0.04 0.57 -0.2 0.68 -0.25 0.06 -0.02 0.06 -0.02 0.06 -0.02 0.06 -0.02 0.06 -0.02 0.06 -0.02 0.06 -0.02 0.06 -0.02 0.06 -0.02 0.06 -0.02 0.04 -0.02 0.02 -0.01 0.06 -0.02 0.06 -0.02 0.06 -0.02 0.06 -0.02 0.06 -0.02 0.06 -0.02 0.06 -0.02 0.06 -0.02 0.06 -0.02 0.06 -0.02 0.03 -0.01 0.03 -0.01 0.06 -0.02 0.06 -0.02 0.06 -0.02 0.06 -0.02 0.06 -0.02 0.06 -0.02 0.06 -0.02 0.06 -0.02 0.06 -0.02 0.06 -0.02 0.01 -0 0.05 -0.02 0.06 -0.02 0.06 -0.02 0.06 -0.02 0.12 -0.04 0.06 -0.02 0.06 -0.02 0.06 -0.02 0.06 -0.02 0.18 -0.06 0.06 -0.02 0.06 -0.02 0.06 -0.02 0.06 -0.02 0.06 -0.02 0.06 -0.02 0.06 -0.02 0.06 -0.02 0.04 -0.02 0.02 -0.01 0.12 -0.04 0.06 -0.02 0.06 -0.02 0.06 -0.02 0.06 -0.02 0.06 -0.02 0.06 -0.02 0.06 -0.02 0.06 -0.02c1.51,-0.54 3.01,-1.07 4.51,-1.6l0.5 -0.18 0.08 -0.03 0.43 -0.15 0.21 -0.07 0.3 -0.1 0.34 -0.12 0.17 -0.06 0.47 -0.16 0.04 -0.01 0.5 -0.18 0.09 -0.03 0.41 -0.14 0.22 -0.08 0.28 -0.1 0.35 -0.12 0.15 -0.05 0.48 -0.17 0.02 -0.01 0.5 -0.18 0.11 -0.04 0.4 -0.14 0.24 -0.08 0.27 -0.09 0.37 -0.13 0.14 -0.05 0.5 -0.17 0.01 -0 0.5 -0.18 0.12 -0.04 0.38 -0.13 0.25 -0.09 0.25 -0.09 0.38 -0.13 0.12 -0.04 0.5 -0.18 0 -0 0.5 -0.17 0.13 -0.05 0.37 -0.13 0.26 -0.09 0.24 -0.08 0.39 -0.14 0.11 -0.04 0.5 -0.18 0.02 -0.01 0.49 -0.17 0.15 -0.05 0.36 -0.12 0.28 -0.1 0.23 -0.08 0.41 -0.14 0.1 -0.03 0.5 -0.18 0.03 -0.01 0.47 -0.16 0.16 -0.06 0.34 -0.12 0.29 -0.1 0.21 -0.07 0.42 -0.15 0.08 -0.03 0.5 -0.18 0.05 -0.02 0.46 -0.16 0.18 -0.06 0.33 -0.12 0.31 -0.11 0.2 -0.07 0.44 -0.15 0.07 -0.02 0.5 -0.18 0.06 -0.02 0.44 -0.16 0.19 -0.07 0.31 -0.11 0.32 -0.11 0.19 -0.07 0.45 -0.16 0.06 -0.02 0.5 -0.18 0.07 -0.03 0.43 -0.15 0.2 -0.07 0.3 -0.11 0.33 -0.12 0.17 -0.06 0.46 -0.17 0.04 -0.01 0.5 -0.18 0.09 -0.03 0.42 -0.15 0.22 -0.08 0.29 -0.1 0.35 -0.12 0.16 -0.06 0.48 -0.17 0.03 -0.01 0.51 -0.18 0.1 -0.04 0.4 -0.15 0.23 -0.08 0.27 -0.1 0.36 -0.13 0.14 -0.05 0.49 -0.18 0.01 -0 0.51 -0.18 0.12 -0.04 0.39 -0.14 0.25 -0.09 0.26 -0.09 0.38 -0.14 0.13 -0.05 0.51 -0.19c2.01,-0.74 4.02,-1.48 6.02,-2.21l0.3 -0.11 1.26 -0.46 0.39 -0.14c10.76,-3.93 21.39,-7.72 32.34,-11.46 8.66,-2.95 15.83,-5.81 24.72,-8.24l-0 0 0.22 -0.06 0.25 -0.07 0.16 -0.05 0.09 -0.02 0.25 -0.07 0.08 -0.02 0.17 -0.05 0.24 -0.07 0.01 -0 0.24 -0.07 0.15 -0.04 0.09 -0.03 0.24 -0.07 0.07 -0.02 0.18 -0.05 0.22 -0.06 0.02 -0.01 0.24 -0.07 0.14 -0.04 0.1 -0.03 0.24 -0.07 0.06 -0.02 0.18 -0.05 0.21 -0.06 0.03 -0.01 0.23 -0.07 0.13 -0.04 0.11 -0.03 0.23 -0.07 0.05 -0.01 0.18 -0.05 0.2 -0.06 0.03 -0.01 0.23 -0.07 0.12 -0.03 0.11 -0.03 0.23 -0.07 0.04 -0.01 0.19 -0.06 0.18 -0.06 0.04 -0.01 0.22 -0.07 0.11 -0.03 0.12 -0.04 0.22 -0.07 0.03 -0.01 0.19 -0.06 0.17 -0.05 0.05 -0.01 0.22 -0.07 0.1 -0.03 0.12 -0.04 0.22 -0.07 0.02 -0.01 0.2 -0.06 0.16 -0.05 0.06 -0.02 0.22 -0.07 0.09 -0.03 0.13 -0.04 0.22 -0.07 0.01 -0 0.21 -0.07 0.15 -0.05 0.06 -0.02 0.22 -0.07 0.08 -0.02 0.14 -0.04 0.22 -0.07 0 -0 0.21 -0.07 0.14 -0.05 0.07 -0.02 0.21 -0.07 0.07 -0.02 0.14 -0.05 0.21 -0.07 0 -0 0.21 -0.07 0.13 -0.04 0.08 -0.03 0.21 -0.07 0.06 -0.02 0.15 -0.05 0.2 -0.07 0.01 -0 0.21 -0.07 0.13 -0.04 0.09 -0.03 0.21 -0.07 0.05 -0.02 0.16 -0.05 0.19 -0.07 0.02 -0.01 0.21 -0.07 0.12 -0.04 0.09 -0.03 0.21 -0.07 0.04 -0.02 0.17 -0.06 0.18 -0.06 0.03 -0.01 0.21 -0.07c2.76,-0.97 5.57,-2.03 8.65,-3.24l0.31 -0.12 0.4 -0.16c5.86,-2.31 11.67,-4.66 17.59,-6.81l0.23 -0.08 0.23 -0.08 0.23 -0.08 0.19 -0.07 0.04 -0.01 0.23 -0.08 0.23 -0.08 0.23 -0.08 0.15 -0.05 0.08 -0.03 0.23 -0.08 0.23 -0.08 0.23 -0.08 0.11 -0.04 0.12 -0.04 0.23 -0.08 0.23 -0.08 0.23 -0.08 0.07 -0.03 0.16 -0.06 0.23 -0.08 0.23 -0.08 0.23 -0.08 0.03 -0.01 0.2 -0.07 0.23 -0.08 0.23 -0.08 0.22 -0.08 0.01 -0 0.23 -0.08 0.23 -0.08 0.23 -0.08 0.18 -0.07 0.05 -0.02 0.23 -0.08 0.23 -0.08 0.23 -0.08 0.14 -0.05 0.09 -0.03 0.23 -0.08 0.23 -0.08 0.23 -0.08 0.1 -0.04 0.12 -0.05 0.23 -0.08 0.23 -0.08 0.23 -0.08 0.06 -0.02 0.16 -0.06 0.23 -0.08 0.23 -0.08 0.23 -0.08 0.03 -0.01 0.2 -0.07 0.23 -0.08 0.23 -0.08 0.21 -0.08 0.01 -0.01 0.23 -0.08 0.23 -0.08 0.23 -0.08 0.17 -0.06 0.05 -0.02 0.23 -0.08 0.23 -0.08 0.23 -0.08 0.14 -0.05 0.09 -0.03 0.23 -0.08 0.23 -0.08 0.23 -0.08 0.1 -0.04 0.13 -0.05 0.23 -0.08 0.23 -0.08 0.23 -0.08 0.06 -0.02 0.17 -0.06 0.23 -0.08 0.23 -0.08c5.83,-2.14 11.65,-4.29 17.48,-6.44l0.2 -0.07 0.1 -0.04 0.3 -0.11 0.3 -0.11 0.17 -0.06 0.12 -0.05 0.3 -0.11 0.3 -0.11 0.15 -0.06 0.15 -0.05 0.3 -0.11 0.3 -0.11 0.13 -0.05 0.17 -0.06 0.3 -0.11 0.3 -0.11 0.11 -0.04 0.19 -0.07 0.3 -0.11 0.3 -0.11 0.08 -0.03 0.22 -0.08 0.3 -0.11 0.3 -0.11 0.06 -0.02 0.24 -0.09 0.3 -0.11 0.3 -0.11 0.04 -0.01 0.26 -0.1 0.3 -0.11 0.3 -0.11 0.01 -0 0.28 -0.1 0.3 -0.11 0.29 -0.11 0.01 -0 0.3 -0.11 0.3 -0.11 0.27 -0.1 0.03 -0.01 0.3 -0.11 0.3 -0.11 0.24 -0.09 0.05 -0.02 0.3 -0.11 0.3 -0.11 0.22 -0.08 0.08 -0.03 0.3 -0.11 0.3 -0.11 0.2 -0.07 0.1 -0.04 0.3 -0.11 0.3 -0.11 0.18 -0.06 0.12 -0.05 0.3 -0.11 0.3 -0.11 0.15 -0.06 0.15 -0.05 0.3 -0.11 0.3 -0.11 0.13 -0.05 0.17 -0.06 0.3 -0.11 0.3 -0.11 0.11 -0.04 0.19 -0.07 0.3 -0.11 0.3 -0.11 0.08 -0.03 0.22 -0.08 0.3 -0.11 0.3 -0.11 0.06 -0.02 0.24 -0.09 0.3 -0.11 0.3 -0.11 0.04 -0.01 0.26 -0.09 0.3 -0.11 0.3 -0.11 0.01 -0.01 0.29 -0.1 0.3 -0.11c1.56,-0.56 3.12,-1.12 4.68,-1.67 7.3,-2.6 14.6,-5.21 21.88,-7.85 11.14,-4.05 22.12,-8.36 33.32,-12.39 15.43,-5.57 30.56,-11.42 46.1,-16.83 6.56,-2.28 11.64,-4.75 17.89,-7.37 2.75,-1.15 5.4,-1.95 8.08,-2.66l0.11 -0.03 0.06 -0.01 0.05 -0.01 0.11 -0.03 0.07 -0.02 0.04 -0.01 0.11 -0.03 0.09 -0.02 0.02 -0 0.11 -0.03 0.11 -0.03 0 -0 0.11 -0.03 0.11 -0.03 0.01 -0 0.09 -0.02 0.11 -0.03 0.03 -0.01 0.08 -0.02 0.11 -0.03 0.05 -0.01 0.06 -0.02 0.11 -0.03 0.07 -0.02 0.04 -0.01 0.11 -0.03 0.08 -0.02 0.03 -0.01 0.11 -0.03 0.1 -0.02 0.01 -0 0.11 -0.03 0.11 -0.03 0.01 -0 0.1 -0.03 0.11 -0.03 0.02 -0.01 0.09 -0.02 0.11 -0.03 0.04 -0.01 0.07 -0.02 0.11 -0.03 0.06 -0.01 0.05 -0.01 0.11 -0.03 0.08 -0.02 0.04 -0.01 0.11 -0.03 0.09 -0.02 0.02 -0 0.11 -0.03 0.11 -0.03 0 -0 0.11 -0.03 0.11 -0.03 0.02 -0 0.1 -0.02 0.11 -0.03 0.03 -0.01 0.08 -0.02 0.11 -0.03 0.05 -0.01 0.06 -0.02 0.11 -0.03 0.07 -0.02 0.04 -0.01 0.11 -0.03 0.09 -0.02 0.03 -0.01 0.11 -0.03 0.1 -0.03 0.01 -0 0.11 -0.03 0.11 -0.03 0.01 -0 0.11 -0.03 0.11 -0.03 0.03 -0.01 0.09 -0.02 0.11 -0.03 0.04 -0.01 0.07 -0.02 0.12 -0.03 0.06 -0.02 0.05 -0.01 0.12 -0.03 0.08 -0.02 0.04 -0.01 0.12 -0.03 0.1 -0.02 0.02 -0 0.12 -0.03 0.12 -0.03c-1.66,-1.27 -3.34,-2.52 -4.98,-3.83l-0.07 0.02 -0.07 0.02 -0.07 0.02 -0.07 0.02 -0.07 0.02 -0.07 0.02 -0.07 0.02 -0.07 0.02 -0.07 0.02 -0.05 0.02 -0.08 0.03 -0.07 0.02 -0.07 0.02 -0.07 0.02 -0.07 0.02 -0.07 0.02 -0.07 0.02 -0.07 0.02 -0.07 0.02 -0.03 0.01 -0.03 0.01 -0.07 0.02 -0.07 0.02 -0.07 0.02 -0.07 0.02 -0.07 0.02 -0.07 0.02 -0.07 0.02 -0.07 0.02 -0.07 0.02 -0.27 0.1 -0.07 0.02 -0.07 0.02 -0.13 0.05 -0.07 0.02 -0.06 0.02 -0 0 -0.07 0.02 -0.07 0.02 -0.07 0.02 -0.07 0.02 -0.13 0.05 -0.07 0.02 -0.07 0.02 -0.11 0.04 -0.02 0.01 -0.07 0.02 -0.07 0.02 -0.07 0.02 -0.07 0.02 -0.07 0.02 -0.07 0.02 -0.07 0.02 -0.07 0.02 -0.07 0.02 -0.03 0.01 -0.04 0.01 -0.07 0.02 -0.07 0.02 -0.07 0.02 -0.07 0.02 -0.07 0.02c-12.41,4.41 -24.65,8.48 -37,13.43 -18.14,7.31 -36.89,12.75 -54.88,19.9 -8.65,3.44 -15.67,6.18 -24.63,8.94 -12.66,3.93 -25.42,8.56 -38.06,12.75 -10.97,3.64 -20.18,7.17 -30.84,11.58 -1.16,0.47 -2.31,0.93 -3.44,1.37l-0.03 0.01 -0.22 0.09 -0.67 0.26 -0.08 0.03 -0 0 -0.25 0.09 -0.24 0.09 -0.01 0 -0.25 0.09 -0.23 0.08 -0.02 0.01 -0.25 0.09 -0.21 0.08 -0.03 0.01 -0.25 0.09 -0.2 0.07 -0.05 0.02 -0.25 0.09 -0.19 0.07 -0.06 0.02 -0.25 0.09 -0.17 0.06 -0.07 0.03 -0.25 0.09 -0.16 0.06 -0.33 0.12 -0.15 0.05 -0.35 0.12 -0.13 0.05 -0.11 0.04 -0.25 0.09 -0.12 0.04 -0.12 0.04 -0.25 0.09 -0.11 0.04 -0.14 0.05 -0.25 0.08 -0.1 0.03 -0.15 0.05 -0.25 0.08 -0.08 0.03 -0.16 0.05 -0.25 0.08 -0.07 0.02 -0.17 0.06 -0.25 0.08 -0.06 0.02 -0.19 0.06 -0.24 0.08 -0.05 0.02 -0.2 0.07 -0.25 0.08 -0.03 0.01 -0.21 0.07 -0.24 0.08 -0.02 0.01 -0.22 0.07 -0.24 0.08 -0.01 0 -0.24 0.08 -0.24 0.08 -0.01 0 -0.24 0.08 -0.23 0.07 -0.02 0.01 -0.24 0.08 -0.21 0.07 -0.03 0.01 -0.45 0.14 -0.04 0.01 -0.25 0.08 -0.19 0.06 -0.06 0.02 -0.24 0.08 -0.18 0.06 -0.07 0.02 -0.25 0.08 -0.16 0.05 -0.08 0.03 -0.25 0.08 -0.15 0.05 -0.09 0.03 -0.25 0.08 -0.14 0.04 -0.11 0.03 -0.25 0.08 -0.13 0.04 -0.12 0.04 -0.25 0.08 -0.11 0.04 -0.13 0.04 -0.25 0.08c-2.67,0.83 -5.36,1.65 -8.13,2.49l-0.06 0.02 -0.06 0.02 -0.06 0.02 -0.06 0.02 -0.03 0.01 -0.03 0.01 -0.06 0.02 -0.06 0.02 -0.06 0.02 -0.06 0.02 -0.06 0.02 -0.06 0.02 -0.06 0.02 -0.06 0.02 -0 0 -0.06 0.02 -0.06 0.02 -0.06 0.02 -0.06 0.02 -0.06 0.02 -0.06 0.02 -0.06 0.02 -0.06 0.02 -0.03 0.01 -0.03 0.01 -0.06 0.02 -0.06 0.02 -0.06 0.02 -0.06 0.02 -0.06 0.02 -0.06 0.02 -0.06 0.02 -0.06 0.02 -0 0 -0.06 0.02 -0.06 0.02 -0.06 0.02 -0.06 0.02 -0.06 0.02 -0.06 0.02 -0.06 0.02 -0.06 0.02 -0.03 0.01 -0.03 0.01 -0.06 0.02 -0.06 0.02 -0.06 0.02 -0.06 0.02 -0.06 0.02 -0.06 0.02 -0.06 0.02 -0.06 0.02 -0 0 -0.06 0.02 -0.06 0.02 -0.06 0.02 -0.06 0.02 -0.06 0.02 -0.06 0.02 -0.06 0.02 -0.06 0.02 -0.03 0.01 -0.03 0.01 -0.06 0.02 -0.06 0.02 -0.06 0.02 -0.06 0.02 -0.06 0.02 -0.06 0.02 -0.06 0.02 -0.06 0.02c-8.22,2.56 -15.03,6.34 -23.51,8.87l-0.03 0.01 -0.03 0.01 -0.03 0.01 -0.03 0.01 -0.03 0.01 -0.03 0.01 -0.03 0.01 -0.03 0.01 -0.03 0.01 -0 0 -0.02 0.01 -0.03 0.01 -0.03 0.01 -0.03 0.01 -0.03 0.01 -0.03 0.01 -0.03 0.01 -0.03 0.01 -0.03 0.01 -0.01 0 -0.02 0.01 -0.03 0.01 -0.03 0.01 -0.03 0.01 -0.03 0.01 -0.03 0.01 -0.03 0.01 -0.03 0.01 -0.03 0.01 -0.01 0 -0.02 0.01 -0.03 0.01 -0.03 0.01 -0.03 0.01 -0.03 0.01 -0.03 0.01 -0.03 0.01 -0.03 0.01 -0.03 0.01 -0.01 0 -0.01 0 -0.03 0.01 -0.03 0.01 -0.03 0.01 -0.03 0.01 -0.03 0.01 -0.03 0.01 -0.03 0.01 -0.03 0.01 -0.02 0 -0.01 0 -0.03 0.01 -0.03 0.01 -0.03 0.01 -0.03 0.01 -0.03 0.01 -0.03 0.01 -0.03 0.01 -0.03 0.01 -0.02 0.01 -0.01 0 -0.03 0.01 -0.03 0.01 -0.03 0.01 -0.03 0.01 -0.03 0.01 -0.03 0.01 -0.03 0.01 -0.03 0.01 -0.02 0.01 -0.01 0c-4.74,1.46 -8.67,2.86 -13.5,4.64 -7.47,2.77 -15.13,4.82 -22.66,7.49l-0.04 0.01 -0.04 0.01 -0.04 0.01 -0.04 0.01 -0.04 0.01 -0.04 0.01 -0.04 0.01 -0.04 0.01 -0.04 0.01 -0.04 0.01 -0 0 -0.03 0.01 -0.04 0.01 -0.04 0.01 -0.04 0.01 -0.04 0.01 -0.04 0.01 -0.04 0.01 -0.04 0.01 -0.04 0.01 -0.04 0.01 -0.03 0.01 -0 0 -0.04 0.01 -0.04 0.01 -0.04 0.01 -0.04 0.01 -0.07 0.03 -0.04 0.01 -0.04 0.01 -0.04 0.01 -0.04 0.01 -0.02 0.01 -0.01 0 -0.04 0.01 -0.25 0.09 -0.04 0.01 -0.04 0.01 -0.02 0.01 -0.02 0.01 -0.04 0.01 -0.04 0.01 -0.11 0.04 -0.04 0.01 -0.04 0.01 -0.04 0.01 -0.04 0.01 -0.04 0.01 -0.01 0 -0.03 0.01 -0.04 0.01 -0.04 0.01 -0.07 0.03 -0.04 0.01 -0.04 0.01 -0.04 0.01 -0.04 0.01 -0.04 0.01 -0.04 0.01 -0.12 0.05 -0.12 0.05 -0.1 0.04 -0.02 0.01 -0.12 0.05 -0.12 0.05 -0.07 0.03 -0.05 0.02 -0.12 0.05 -0.12 0.05 -0.05 0.02 -0.07 0.03 -0.12 0.05 -0.12 0.05 -0.02 0.01 -0.1 0.04 -0.12 0.05 -0.12 0.05 -0.12 0.05 -0.12 0.05 -0.1 0.04 -0.02 0.01 -0.12 0.05 -0.12 0.05 -0.07 0.03 -0.05 0.02 -0.12 0.05 -0.12 0.05 -0.05 0.02 -0.07 0.03 -0.12 0.05 -0.12 0.05 -0.02 0.01 -0.1 0.04 -0.12 0.05 -0.12 0.05 -0 0 -0.12 0.05 -0.12 0.05 -0.1 0.04 -0.02 0.01 -0.12 0.05 -0.12 0.05 -0.07 0.03 -0.05 0.02 -0.12 0.05 -0.12 0.05 -0.05 0.02 -0.07 0.03 -0.12 0.05 -0.12 0.05 -0.02 0.01 -0.1 0.04 -0.12 0.05 -0.12 0.05 -0.12 0.05 -0.12 0.05 -0.1 0.04 -0.02 0.01 -0.12 0.05 -0.12 0.05 -0.07 0.03 -0.05 0.02 -0.12 0.05 -0.12 0.05 -0.05 0.02 -0.07 0.03 -0.12 0.05 -0.12 0.05 -0.02 0.01 -0.1 0.04 -0.12 0.05 -0.12 0.05 -0 0 -0.12 0.05 -0.12 0.05 -0.1 0.04 -0.02 0.01 -0.12 0.05 -0.12 0.05 -0.07 0.03 -0.05 0.02 -0.12 0.05 -0.12 0.05c-1.7,0.64 -3.41,1.28 -5.11,1.92l-0.11 0.04 -0.03 0.01 -0.14 0.05 -0.14 0.05 -0.03 0.01 -0.12 0.04 -0.14 0.05 -0.09 0.03 -0.05 0.02 -0.14 0.05 -0.14 0.05 -0.01 0 -0.13 0.05 -0.14 0.05 -0.07 0.03 -0.07 0.03 -0.14 0.05 -0.13 0.05 -0.01 0 -0.14 0.05 -0.19 0.07 -0.09 0.03 -0.14 0.05 -0.11 0.04 -0.03 0.01 -0.14 0.05 -0.14 0.05 -0.03 0.01 -0.11 0.04 -0.14 0.05 -0.09 0.03 -0.05 0.02 -0.14 0.05 -0.14 0.05 -0.01 0 -0.13 0.05 -0.14 0.05 -0.07 0.03 -0.07 0.03 -0.14 0.05 -0.13 0.05 -0.01 0 -0.14 0.05 -0.14 0.05 -0.05 0.02 -0.09 0.03 -0.14 0.05 -0.11 0.04 -0.03 0.01 -0.14 0.05 -0.14 0.05 -0.03 0.01 -0.11 0.04 -0.14 0.05 -0.1 0.04 -0.05 0.02 -0.14 0.05 -0.14 0.05 -0.02 0.01 -0.13 0.05 -0.14 0.05 -0.08 0.03 -0.07 0.02 -0.14 0.05 -0.14 0.05 -0 0 -0.14 0.05 -0.14 0.05 -0.06 0.02 -0.08 0.03 -0.14 0.05 -0.12 0.04 -0.02 0.01 -0.14 0.05 -0.14 0.05 -0.04 0.01 -0.1 0.04 -0.14 0.05 -0.1 0.04 -0.04 0.02 -0.14 0.05 -0.14 0.05 -0.02 0.01 -0.12 0.04 -0.14 0.05 -0.08 0.03 -0.06 0.02 -0.14 0.05 -0.14 0.05 -0.33 0.12 -0.26 0.1 -0.07 0.03 -0.33 0.12 -0.19 0.07 -0.14 0.05 -0.33 0.12 -0.12 0.04 -0.21 0.08 -0.33 0.12 -0.05 0.02 -0.28 0.1 -0.31 0.12 -0.02 0.01 -0.33 0.12 -0.24 0.09 -0.09 0.03 -0.33 0.12 -0.17 0.06 -0.16 0.06 -0.33 0.12 -0.1 0.04 -0.23 0.08 -0.33 0.12 -0.03 0.01 -0.29 0.11 -0.29 0.11 -0.03 0.01 -0.33 0.12 -0.22 0.08 -0.1 0.04 -0.33 0.12 -0.15 0.06 -0.17 0.06 -0.33 0.12 -0.09 0.03 -0.24 0.09 -0.33 0.12 -0.02 0.01 -0.31 0.12 -0.27 0.1 -0.05 0.02 -0.33 0.12 -0.2 0.08 -0.12 0.05 -0.33 0.12 -0.14 0.05 -0.19 0.07 -0.33 0.12 -0.07 0.03 -0.26 0.1 -0.32 0.12 -0 0 -0.32 0.12 -0.26 0.1 -0.07 0.03 -0.32 0.12 -0.19 0.07 -0.14 0.05 -0.32 0.12 -0.12 0.04 -0.21 0.08 -0.32 0.12 -0.05 0.02 -0.27 0.1 -0.31 0.12 -0.02 0.01 -0.32 0.12 -0.24 0.09 -0.09 0.03 -0.32 0.12 -0.17 0.06 -0.15 0.06 -0.32 0.12 -0.1 0.04 -0.22 0.08 -0.32 0.12 -0.03 0.01 -0.29 0.11 -0.29 0.11 -0.03 0.01 -0.32 0.12 -0.22 0.08 -0.1 0.04 -0.32 0.12 -0.15 0.06 -0.17 0.06 -0.32 0.12 -0.08 0.03 -0.56 0.21 -0.02 0.01 -0.31 0.11 -0.27 0.1 -0.05 0.02 -0.32 0.12 -0.2 0.08 -0.12 0.04 -0.32 0.12c-1.41,0.52 -2.82,1.04 -4.24,1.55l-0.19 0.07 -0.19 0.07 -0.17 0.06 -0.02 0.01 -0.19 0.07 -0.19 0.07 -0.18 0.07 -0.01 0 -0.19 0.07 -0.19 0.07 -0.19 0.07 -0 0 -0.19 0.07 -0.19 0.07 -0.19 0.07 -0.01 0.01 -0.18 0.06 -0.19 0.07 -0.19 0.07 -0.02 0.01 -0.17 0.06 -0.19 0.07 -0.19 0.07 -0.03 0.01 -0.16 0.06 -0.19 0.07 -0.19 0.07 -0.05 0.02 -0.15 0.05 -0.19 0.07 -0.19 0.07 -0.06 0.02 -0.14 0.05 -0.19 0.07 -0.19 0.07 -0.07 0.02 -0.13 0.04 -0.19 0.07 -0.19 0.07 -0.08 0.03 -0.12 0.04 -0.19 0.07 -0.19 0.07 -0.09 0.03 -0.11 0.04 -0.19 0.07 -0.19 0.07 -0.1 0.03 -0.1 0.03 -0.2 0.07 -0.19 0.07 -0.11 0.04 -0.09 0.03 -0.2 0.07 -0.2 0.07 -0.12 0.04 -0.07 0.03 -0.2 0.07 -0.2 0.07 -0.13 0.04 -0.06 0.02 -0.2 0.07 -0.2 0.07 -0.14 0.05 -0.05 0.02 -0.2 0.07 -0.2 0.06 -0.15 0.05 -0.04 0.01 -0.2 0.06 -0.2 0.06 -0.17 0.05 -0.03 0.01 -0.2 0.06 -0.2 0.06 -0.18 0.06 -0.02 0.01 -0.2 0.06 -0.2 0.06 -0.19 0.06 -0.01 0 -0.2 0.06 -0.2 0.06 -0.2 0.06c-6.54,2.09 -11.66,4.38 -17.93,6.76l-0.23 0.09 -0.12 0.05 -0.1 0.04 -0.23 0.08 -0.02 0.01 -0.2 0.07 -0.15 0.05 -0.08 0.03 -0.23 0.08 -0.04 0.02 -0.18 0.06 -0.17 0.06 -0.06 0.02 -0.23 0.08 -0.07 0.02 -0.16 0.05 -0.19 0.06 -0.04 0.01 -0.32 0.1 -0.14 0.05 -0.21 0.07 -0.01 0 -0.34 0.11 -0.12 0.04 -0.23 0.07 -0.01 0 -0.35 0.11 -0.09 0.03 -0.23 0.07 -0.03 0.01 -0.35 0.11 -0.07 0.02 -0.23 0.07 -0.05 0.02 -0.34 0.1 -0.01 0 -0.05 0.01 -0.23 0.07 -0.07 0.02 -0.35 0.1 -0.03 0.01 -0.23 0.07 -0.1 0.03 -0.13 0.04 -0.22 0.06 -0.01 0 -0.23 0.06 -0.12 0.03 -0.11 0.03 -0.23 0.06 -0.02 0 -0.21 0.06 -0.14 0.04 -0.09 0.02 -0.23 0.06 -0.04 0.01 -0.19 0.05 -0.16 0.04 -0.07 0.02 -0.23 0.06 -0.06 0.02 -0.17 0.05 -0.19 0.05 -0.04 0.01 -0.23 0.06 -0.08 0.02 -0.15 0.04 -0.21 0.06 -0.02 0.01 -0.23 0.06 -0.11 0.03 -0.13 0.03 -0.23 0.06 -0 0 -0.23 0.06 -0.13 0.03 -0.1 0.03 -0.23 0.06 -0.02 0.01 -0.21 0.05 -0.15 0.04 -0.08 0.02 -0.23 0.06 -0.05 0.01 -0.19 0.05 -0.17 0.05 -0.06 0.02 -0.23 0.06 -0.07 0.02 -0.16 0.04 -0.2 0.05 -0.04 0.01 -0.23 0.06 -0.09 0.02 -0.14 0.04 -0.22 0.06 -0.01 0 -0.23 0.06 -0.11 0.03 -0.12 0.03c-1.61,0.44 -3.23,0.9 -4.85,1.41l-0.04 0.01 -0.04 0.01 -0 0 -0.04 0.01 -0.04 0.01 -0.04 0.01 -0.04 0.01 -0.04 0.01 -0.04 0.01 -0.04 0.01 -0.04 0.01 -0.01 0 -0.03 0.01 -0.04 0.01 -0.04 0.01 -0.04 0.01 -0.04 0.01 -0.04 0.01 -0.04 0.01 -0.04 0.01 -0.02 0.01 -0.02 0.01 -0.04 0.01 -0.04 0.01 -0.04 0.01 -0.04 0.01 -0.04 0.01 -0.04 0.01 -0.04 0.01 -0.04 0.01 -0.01 0 -0.04 0.01 -0.04 0.01 -0.04 0.01 -0.04 0.01 -0.04 0.01 -0.04 0.01 -0.04 0.01 -0.04 0.01 -0.01 0 -0.04 0.01 -0.04 0.01 -0.04 0.01 -0.04 0.01 -0.09 0.03 -0.04 0.01 -0.04 0.02 -0.02 0.01 -0.03 0.01 -0.04 0.01 -0.04 0.02 -0.04 0.02 -0.04 0.02 -0.04 0.02 -0.04 0.02 -0.04 0.02 -0.03 0.01 -0.01 0 -0.04 0.02 -0.04 0.02 -0.04 0.02 -0.04 0.02 -0.04 0.02 -0.04 0.02 -0.04 0.02 -0.04 0.02 -0 0 -0.04 0.02 -0.04 0.02 -0.04 0.02 -0.04 0.02 -0.55 0.2c-8.16,3.05 -16.33,6.21 -24.4,9.5 -9.84,4.02 -19.6,6.1 -29.63,10.21 -2.44,1 -4.87,2.02 -7.3,3.06 -11.79,5.07 -23.15,6.98 -35.03,11.62 -9.72,3.8 -18.01,7.61 -28.08,10.84 -11.08,3.55 -21.96,6.9 -33.07,10.3 -15.21,4.65 -30.38,11.39 -45.56,16.69 -11.68,4.08 -23.47,8.06 -35.18,12.1 -1.57,0.54 -3.15,1.07 -4.73,1.59 -18.55,6.02 -35.88,12.43 -53.98,19.66 -11.71,4.68 -24.25,8.07 -36.31,11.98 -12.72,4.12 -25.67,8.8 -38.24,13.42l-0.91 0.34c-9.47,3.48 -18.65,6.86 -28.08,10.48 -8.01,3.08 -16.32,5.97 -24.41,8.96 -7.58,2.74 -14.81,4.37 -22.52,7.46 -0.04,0.02 -10.01,3.92 -10,3.97 0.01,0.15 3.78,2.99 4.19,3.42 2.39,2.55 0.1,2.29 5.42,0.57 7.4,-2.39 13.64,-4.43 20.92,-7.31 3.71,-1.47 7.42,-2.89 11.17,-4.25 8.45,-3.05 15.78,-5.82 24.45,-8.42 14.45,-4.33 29.08,-9.87 43.4,-14.8 9.28,-3.19 18.06,-7.07 27.48,-10.24 7.16,-2.41 13.55,-4.68 20.86,-6.78 13.17,-3.79 24.11,-8.4 36.8,-13.15 16.29,-6.09 32.62,-11.7 48.92,-17.86 17.76,-6.71 35.66,-11.9 53.59,-17.89 5.93,-1.98 11.69,-4.07 17.46,-6.49 7.98,-3.38 17,-7.18 25.11,-10.07 7.83,-2.79 15.99,-4.3 24.08,-7.11 1.37,-0.48 2.73,-0.96 4.1,-1.44l0.06 -0.02 0.92 -0.33 0.12 -0.04 0.85 -0.31zm558.28 -205.47c1.28,0.7 2.52,1.4 3.71,2.11 0.61,0.28 1.21,0.57 1.82,0.86 0.4,0.12 0.76,0.24 1.19,0.24 0.36,0 38.35,-13.82 42.77,-15.31 19.58,-6.58 38.98,-13.47 58.58,-19.95 12.95,-4.3 25.52,-9.28 38.4,-13.59 8.22,-2.74 15.97,-5.96 24.04,-8.71 28.83,-9.84 57.28,-20.06 86,-30.14 -0.91,-1.28 -1.8,-2.56 -2.69,-3.86 -19.99,7.19 -40.19,13.98 -60.24,21.01 -10.87,3.81 -22.29,7.83 -32.97,12.05 -8.58,3.38 -16.38,5.21 -24.93,8.12 -19.77,6.74 -39.52,13.52 -59.23,20.41 -15.93,5.56 -31.9,11.83 -47.82,17.15 -9.67,3.23 -18.99,6.17 -28.63,9.62zm-366.23 1066.56c-19.8,20.38 -55.33,36.31 -58.81,45.27 2.27,14.11 41.32,67.16 45.39,80.76 2.98,9.94 6.44,21.5 1.99,31.52 -7.03,15.83 -30.61,18.99 -45.68,21.06 -3.39,0.47 -25.8,3.87 -27.3,7.95 -0.79,2.16 -0.12,10.69 -0.12,13.3 -0,10.97 -2.33,20.43 -7.74,30.05 -3.84,6.82 -7.89,13.53 -12.06,20.15 -8.62,13.7 -17.8,27.38 -27.29,40.69 10.76,1.93 22.16,2.99 31.94,3.21 28.38,0.63 58.71,-5.45 79.67,-25.96 34.09,-33.38 22.89,-35.49 67.68,-61.35 6.7,-3.87 13.71,-6.17 20.87,-7.3 41.8,-82.58 14.57,-183.38 14.57,-183.38 37.47,65.43 25.79,128.8 9.03,170.94 7.19,0.96 14.35,2.65 21.35,4.71 24.63,7.24 44.87,17.95 66.04,32.16 12.31,8.26 27.14,19.78 41.29,24.22 7.77,2.44 15.27,2.76 23.29,1.37 29.44,-5.12 55.04,-22.32 83.56,-30.21 -9.38,-9.36 -21.84,-16.48 -33.13,-21.81 -8.38,-3.96 -15.78,-9.91 -15.91,-19.98 -0.03,-2.01 0.26,-3.85 0.67,-5.75 -32.57,-20.37 -60.09,-73.28 -77.81,-106.74 -3.17,-5.99 -6.63,-11.75 -10.95,-16.99 -5.6,-6.8 -12.46,-12.45 -19.43,-17.78 -12.23,-9.35 -25.11,-18.16 -37.67,-27.08 -24.84,-17.67 -42.38,-45.32 -56.07,-72.06l-5.83 -11.39c-0.33,2.57 -0.73,5.06 -1.07,7.2 -1.37,8.62 -3.15,17.25 -5.22,25.73 -2.33,9.52 -5.13,19.56 -8.97,28.58 -3.63,8.54 -9.52,19.13 -20.27,18.88 -2.68,-0.06 -5.26,-0.86 -7.53,-2.28 -8.74,-5.46 -13.45,-13.88 -19.81,-8.48 39.63,65.48 20.53,138.72 20.53,138.72 5.94,-63.4 -17.74,-109.65 -29.22,-127.92zm72.15 -86.87l0.15 0.01 -0.15 -0.07c-0,0.02 -0,0.04 -0,0.05zm-275.78 -850.22c0,0 27.34,-8.16 40.29,-14.64 12.96,-6.48 21.12,-10.11 21.12,-6.09 0,4.02 -10.11,29.93 -10.11,29.93 0,0 18.66,-34.34 13.6,-36.54 -5.05,-2.2 -30.45,13.6 -64.91,27.34zm16.85 95.49c0,0 -8.55,2.85 -7,7 1.55,4.15 15.55,59.6 18.4,58.56 2.85,-1.04 37.83,-28.5 37.83,-28.5 0,0 -36.54,23.97 -37.06,22.8 -0.52,-1.17 -15.42,-52.47 -14.77,-53.77 0.65,-1.3 2.59,-6.09 2.59,-6.09zm-29.14 -170.49c0,0 -3.89,-8.42 -1.43,-8.03 2.46,0.39 113.24,42.5 113.24,42.5 0,0 -109.22,-37.06 -111.81,-34.46zm597.22 82.69c0,0 -9.09,1.01 -10.36,2.4 -1.26,1.39 39.53,57.85 48.25,64.54 0,0 21.85,-4.42 20.34,-5.81 -1.52,-1.39 -62.9,-54.06 -58.23,-61.13zm-14.85 5.14c0,0 28.5,50.27 40.16,64.27 0,0 -2.76,0.06 -9.75,3.3 0,0 -28.19,-46.71 -35.05,-65.76 0,0 -0.65,0.12 1.94,-0.79 2.59,-0.91 2.71,-1.02 2.71,-1.02zm-817.25 265.83c44.65,0 88.76,31 124.5,81.49 -33.3,-44.24 -73.52,-71.12 -114.21,-71.12 -88.31,0 -145.39,126.53 -127.48,282.62 17.91,156.09 104.02,282.62 192.33,282.62 54.23,0 96.66,-47.71 117.21,-120.67 -20.41,81.14 -65.91,134.85 -124.68,134.85 -92.15,0 -182,-132.03 -200.68,-294.89 -18.69,-162.86 40.86,-294.89 133.01,-294.89zm703.34 502.18c-23.46,0.19 -55.98,-2.32 -55.98,-2.32 -67.27,-44.16 -136.08,-139.67 -136.08,-139.67 27.22,63.67 118.62,143.78 121.7,149.43 1.96,3.59 2.67,35.46 1.21,58.96 1.84,-19.67 6.73,-60.16 15.76,-60.16 11.92,0 53.39,-6.23 53.39,-6.23l0 -0zm-70.01 76.85l-0 0.03 0 0 0 -0.03zm-203.82 15.88c-8.2,-12.93 -24.51,-83.76 -24.51,-83.76 0,0 4.62,60.59 5.14,79.08 0.29,10.27 -24.79,31.32 -47.13,48 26.88,-11.73 54.61,-33.44 66.51,-43.32z" fill="#ebdf84"/></g></svg>